<svg id="artwork2" xmlns="http://www.w3.org/2000/svg" viewBox="0 0 360.004 512.006"><defs><style>.cls-1{fill:#aeadb3;}.cls-2{fill:#fedb41;}.cls-3{fill:#fea832;}.cls-4{fill:#d9d9d9;}.cls-5{fill:#ffc2de;}</style></defs><path class="cls-1" d="M180.035,512.006a74.315,74.315,0,0,1-53.2-22.6,75.593,75.593,0,0,1-21.8-53.4,15,15,0,0,1,30,0c0,24.9,20.6,46,45,46s45-21.1,45-46a15,15,0,0,1,30,0,76.02,76.02,0,0,1-21.8,53.4A73.914,73.914,0,0,1,180.035,512.006Z"/><path class="cls-2" d="M270.035,391.006h-180a14.98,14.98,0,0,1-15-15c0-27.6-10.8-55.5-29.6-76.6-38.4-43.2-53.5-101-41.3-158.6a179.143,179.143,0,0,1,137.2-136.8c54.4-11.4,109.8,1.8,152.1,36.2,77.1,62.6,89,175.8,26.4,253-1.4,1.8-2.9,3.5-4.4,5.2-19.6,22.5-30.4,50-30.4,77.6a14.98,14.98,0,0,1-15,15Zm-165.8-30h151.6c3.3-29.7,16.1-58.5,37.1-82.3,54.5-62.3,48.3-157-14-211.5-1.4-1.2-2.9-2.5-4.3-3.7-35.3-28.6-81.6-39.6-127.1-30.1-56.3,11.8-102.1,57.4-114,113.6-10.2,48.2,2.3,96.4,34.3,132.4A149.432,149.432,0,0,1,104.235,361.006Z"/><path class="cls-3" d="M120.735,200.806a10.442,10.442,0,0,1,14.8,0h0a62.951,62.951,0,0,0,88.9,0,10.465,10.465,0,0,1,14.8,14.8,83.834,83.834,0,0,1-118.5,0C117.235,211.706,117.735,205.306,120.735,200.806Z"/><path class="cls-4" d="M240.035,451.006h-120a45.068,45.068,0,0,1-45-45v-30a14.98,14.98,0,0,1,15-15h180a14.98,14.98,0,0,1,15,15v30A45,45,0,0,1,240.035,451.006Zm-135-60v15a14.98,14.98,0,0,0,15,15h120a14.98,14.98,0,0,0,15-15v-15Z"/><circle class="cls-3" cx="87.535" cy="183.306" r="17.5"/><ellipse class="cls-5" cx="69.435" cy="225.806" rx="25.2" ry="14.3"/><circle class="cls-3" cx="272.506" cy="183.31" r="17.5"/><ellipse class="cls-5" cx="290.635" cy="225.806" rx="25.2" ry="14.3"/></svg>